<?xml version="1.0" encoding="utf-8"?>
<!-- Generator: Adobe Illustrator 21.1.0, SVG Export Plug-In . SVG Version: 6.00 Build 0)  -->
<svg version="1.1" id="Layer_1" xmlns="http://www.w3.org/2000/svg" xmlns:xlink="http://www.w3.org/1999/xlink" x="0px" y="0px"
	 viewBox="0 0 450 450" style="enable-background:new 0 0 450 450;" xml:space="preserve">
<style type="text/css">
	.st0{fill:#B21414;}
	.st1{fill:#ED2517;}
</style>
<title>icon</title>
<rect width="450" height="450"/>
<path class="st0" d="M287,64.3h50.5c0,107.1,0,214.2,0,321.3c-16.7-2.7-33.5-4.7-50.3-6.2C287,274.4,287,169.4,287,64.3z"/>
<path class="st0" d="M162.9,379.4c-16.8,1.5-33.6,3.5-50.3,6.2c0-107.1,0-214.1,0-321.2H163L162.9,379.4z"/>
<g>
	<g>
		<path class="st1" d="M226.8,319.2h0.9c12.7-84.9,25.4-169.6,38.1-254.9h46.4c-16.5,105.9-33,209.8-49.5,313.4
			c-25.1-1.3-50.3-1.3-75.5,0c-16.5-103.6-33-207.5-49.5-313.4h51C201.4,149.6,214.1,234.2,226.8,319.2z"/>
	</g>
</g>
</svg>
