<svg id="Layer_1" data-name="Layer 1" xmlns="http://www.w3.org/2000/svg" viewBox="0 0 212 321"><defs><style>.cls-1{fill:#d81a16;}.cls-2{fill:#ed2517;}</style></defs><title>icon</title><path class="cls-1" d="M.35-.26Q.35,160.37.35,321q21.89-3.47,43.93-5.49l.09-223.28h.53q-7.66-46-15.32-92.47Z"/><path class="cls-1" d="M178.54-.26Q171.61,45.06,164.68,90q0,112.58.09,225.17,23.88,2.07,47.61,5.82V-.26Z"/><path class="cls-2" d="M142.17-.26c-11.3,74.28-22.62,148.14-34,222.18h-.92C95,147.84,82.78,74,70.57-.26h-41Q37.24,46.2,44.9,92.21h.39C57.5,166.28,69.72,239.68,82,313.1q23.93-.86,47.88,0c11.33-74.5,22.63-149,33.92-224.11l.92,0q0,.52,0,1,6.93-45,13.85-90.27Z"/></svg>