<?xml version="1.0" encoding="utf-8"?>
<!-- Generator: Adobe Illustrator 21.1.0, SVG Export Plug-In . SVG Version: 6.00 Build 0)  -->
<svg version="1.1" id="Layer_1" xmlns="http://www.w3.org/2000/svg" xmlns:xlink="http://www.w3.org/1999/xlink" x="0px" y="0px"
	 viewBox="0 0 212 321" style="enable-background:new 0 0 212 321;" xml:space="preserve">
<style type="text/css">
	.st0{fill:#B21414;}
	.st1{fill:#ED2517;}
</style>
<title>icon</title>
<path class="st0" d="M0.3-0.3c0,107.1,0,214.2,0,321.3c14.6-2.3,29.2-4.1,43.9-5.5l0.1-223.3h0.5C39.8,61.6,34.7,30.7,29.6-0.2
	L0.3-0.3z"/>
<path class="st0" d="M178.5-0.3C173.9,30,169.3,60,164.7,90c0,75.1,0,150.1,0.1,225.2c15.9,1.4,31.8,3.3,47.6,5.8V-0.3H178.5z"/>
<path class="st1" d="M142.2-0.3c-11.3,74.3-22.6,148.1-34,222.2h-0.9C95,147.8,82.8,74,70.6-0.3h-41c5.1,31,10.2,61.8,15.3,92.5h0.4
	C57.5,166.3,69.7,239.7,82,313.1c16-0.6,31.9-0.6,47.9,0c11.3-74.5,22.6-149,33.9-224.1h0.9c0,0.3,0,0.7,0,1
	c4.6-30,9.2-60.1,13.9-90.3L142.2-0.3z"/>
</svg>
